<?xml version="1.0" encoding="UTF-8" standalone="no"?>
<svg
   xmlns:dc="http://purl.org/dc/elements/1.1/"
   xmlns:cc="http://creativecommons.org/ns#"
   xmlns:rdf="http://www.w3.org/1999/02/22-rdf-syntax-ns#"
   xmlns:svg="http://www.w3.org/2000/svg"
   xmlns="http://www.w3.org/2000/svg"
   viewBox="0 0 378.13464 252.09333"
   height="252.09332"
   width="378.13464"
   xml:space="preserve"
   id="svg2"
   version="1.1"><metadata
     id="metadata8"><rdf:RDF><cc:Work
         rdf:about=""><dc:format>image/svg+xml</dc:format><dc:type
           rdf:resource="http://purl.org/dc/dcmitype/StillImage" /><dc:title></dc:title></cc:Work></rdf:RDF></metadata><defs
     id="defs6" /><g
     transform="matrix(1.3333333,0,0,-1.3333333,-206.03066,673.42132)"
     id="g10"><path
       d="M 154.523,505.066 H 438.124 V 315.996 H 154.523 v 189.07"
       style="fill:#254aa5;fill-opacity:1;fill-rule:nonzero;stroke:none;stroke-width:0.1"
       id="path16" /><path
       d="m 290.28,463.871 5.984,4.367 5.985,-4.367 -2.277,7.063 6.078,4.367 h -7.493 l -2.293,7.148 -2.292,-7.156 -7.488,0.008 6.073,-4.367 -2.277,-7.063"
       style="fill:#fff200;fill-opacity:1;fill-rule:nonzero;stroke:none;stroke-width:0.1"
       id="path18" /><path
       d="m 259.311,455.551 5.985,4.367 5.981,-4.367 -2.274,7.062 6.074,4.367 h -7.492 l -2.293,7.157 -2.293,-7.164 -7.488,0.007 6.074,-4.367 -2.274,-7.062"
       style="fill:#fff200;fill-opacity:1;fill-rule:nonzero;stroke:none;stroke-width:0.1"
       id="path20" /><path
       d="m 242.636,451.426 -2.293,-7.164 -7.488,0.008 6.074,-4.368 -2.277,-7.062 5.984,4.367 5.984,-4.367 -2.277,7.062 6.074,4.368 h -7.488 l -2.293,7.156"
       style="fill:#fff200;fill-opacity:1;fill-rule:nonzero;stroke:none;stroke-width:0.1"
       id="path22" /><path
       d="m 234.323,406.277 5.981,-4.367 -2.274,7.063 6.075,4.367 h -7.489 l -2.293,7.156 -2.293,-7.172 -7.492,0.016 6.078,-4.367 -2.277,-7.063 5.984,4.367"
       style="fill:#fff200;fill-opacity:1;fill-rule:nonzero;stroke:none;stroke-width:0.1"
       id="path24" /><path
       d="m 244.929,382.316 -2.293,7.157 -2.293,-7.164 -7.488,0.007 6.074,-4.367 -2.277,-7.062 5.984,4.375 5.984,-4.375 -2.277,7.062 6.074,4.367 h -7.488"
       style="fill:#fff200;fill-opacity:1;fill-rule:nonzero;stroke:none;stroke-width:0.1"
       id="path26" /><path
       d="m 267.632,359.613 -2.293,7.149 -2.289,-7.157 -7.493,0.008 6.075,-4.367 -2.273,-7.062 5.984,4.367 5.98,-4.367 -2.273,7.062 6.074,4.367 h -7.492"
       style="fill:#fff200;fill-opacity:1;fill-rule:nonzero;stroke:none;stroke-width:0.1"
       id="path28" /><path
       d="m 298.561,351.387 -2.292,7.156 -2.289,-7.164 -7.492,0.008 6.073,-4.367 -2.273,-7.063 5.985,4.367 5.98,-4.367 -2.277,7.063 6.078,4.367 h -7.493"
       style="fill:#fff200;fill-opacity:1;fill-rule:nonzero;stroke:none;stroke-width:0.1"
       id="path30" /><path
       d="m 329.491,359.613 -2.289,7.149 -2.297,-7.157 -7.484,0.008 6.07,-4.367 -2.273,-7.062 5.984,4.367 5.984,-4.367 -2.281,7.062 6.079,4.367 h -7.493"
       style="fill:#fff200;fill-opacity:1;fill-rule:nonzero;stroke:none;stroke-width:0.1"
       id="path32" /><path
       d="m 352.202,382.316 -2.297,7.157 -2.296,-7.164 -7.485,0.007 6.078,-4.367 -2.281,-7.062 5.984,4.375 5.984,-4.375 -2.28,7.062 6.077,4.367 h -7.484"
       style="fill:#fff200;fill-opacity:1;fill-rule:nonzero;stroke:none;stroke-width:0.1"
       id="path34" /><path
       d="m 367.913,413.426 h -7.492 l -2.297,7.156 -2.289,-7.164 -7.492,0.008 6.078,-4.367 -2.273,-7.063 5.976,4.375 5.985,-4.375 -2.274,7.063 6.078,4.367"
       style="fill:#fff200;fill-opacity:1;fill-rule:nonzero;stroke:none;stroke-width:0.1"
       id="path36" /><path
       d="m 343.921,432.934 5.984,4.367 5.984,-4.367 -2.28,7.062 6.077,4.359 h -7.484 l -2.297,7.157 -2.296,-7.164 -7.485,0.007 6.078,-4.359 -2.281,-7.062"
       style="fill:#fff200;fill-opacity:1;fill-rule:nonzero;stroke:none;stroke-width:0.1"
       id="path38" /><path
       d="m 327.288,474.129 -2.289,-7.164 -7.492,0.015 6.07,-4.375 -2.273,-7.062 5.992,4.375 5.977,-4.375 -2.274,7.062 6.078,4.375 h -7.5 l -2.289,7.149"
       style="fill:#fff200;fill-opacity:1;fill-rule:nonzero;stroke:none;stroke-width:0.1"
       id="path40" /></g></svg>